<?xml version="1.0"?>
<svg xmlns="http://www.w3.org/2000/svg" xmlns:xlink="http://www.w3.org/1999/xlink" version="1.1" id="Capa_1" x="0px" y="0px" viewBox="0 0 512 512" style="enable-background:new 0 0 512 512;" xml:space="preserve" width="512px" height="512px" class=""><g transform="matrix(5.10992e-17 0.834514 -0.834514 5.10992e-17 469.636 42.3644)"><g>
	<g>
		<path d="M456.287,196.17l-37.689-62.964C429.348,122.357,436,107.442,436,91c0-33.084-26.916-60-60-60    c-22.159,0-41.537,12.084-51.928,30H187.928C177.537,43.084,158.159,31,136,31c-33.084,0-60,26.916-60,60    c0,16.443,6.653,31.357,17.402,42.206L55.713,196.17C24.625,198.378,0,224.359,0,256s24.625,57.622,55.713,59.83l37.689,62.964    C82.653,389.643,76,404.557,76,421c0,33.084,26.916,60,60,60c22.159,0,41.537-12.084,51.928-30h136.144    c10.391,17.916,29.769,30,51.928,30c33.084,0,60-26.916,60-60c0-16.443-6.653-31.357-17.402-42.206l37.688-62.964    C487.375,313.623,512,287.641,512,256S487.376,198.378,456.287,196.17z M376,61c16.542,0,30,13.458,30,30s-13.458,30-30,30    s-30-13.458-30-30S359.458,61,376,61z M351.772,145.872c12.92,5.727,27.428,6.701,41.064,2.707l32.224,53.835    c-15.253,7.7-26.801,21.708-31.161,38.587H284.884L351.772,145.872z M196,91h120c0,13.599,4.555,26.151,12.21,36.225L256,229.921    l-72.21-102.696C191.445,117.151,196,104.599,196,91z M136,61c16.542,0,30,13.458,30,30s-13.458,30-30,30s-30-13.458-30-30    S119.458,61,136,61z M119.164,148.578c13.619,3.99,28.127,3.028,41.064-2.706L227.116,241H118.101    c-4.36-16.878-15.908-30.887-31.161-38.587L119.164,148.578z M60,286c-16.542,0-30-13.458-30-30s13.458-30,30-30s30,13.458,30,30    S76.542,286,60,286z M136,451c-16.542,0-30-13.458-30-30s13.458-30,30-30s30,13.458,30,30S152.542,451,136,451z M160.228,366.128    c-12.92-5.727-27.428-6.701-41.064-2.707L86.94,309.587c15.253-7.7,26.801-21.708,31.161-38.587h109.015L160.228,366.128z     M316,421H196c0-13.599-4.555-26.151-12.21-36.225L256,282.079l72.21,102.696C320.555,394.849,316,407.401,316,421z M376,451    c-16.542,0-30-13.458-30-30s13.458-30,30-30s30,13.458,30,30S392.542,451,376,451z M392.836,363.421    c-13.618-3.989-28.128-3.027-41.064,2.707L284.884,271h109.015c4.36,16.878,15.908,30.886,31.161,38.586L392.836,363.421z     M452,286c-16.542,0-30-13.458-30-30s13.458-30,30-30s30,13.458,30,30S468.542,286,452,286z" data-original="#000000" class="active-path" data-old_color="#0700FF" fill="#2D00FF"/>
	</g>
</g></g> </svg>
